# xmcd CD database file
#
# Track frame offsets:
#	150
#	11632
#	24737
#	43265
#	61310
#	72650
#	91345
#	108590
#	120147
#	131102
#
# Disc length: 1922 seconds
#
# Revision: 0
# Processed by: cddbd v1.5.1PL0 Copyright (c) Steve Scherf et al.
# Submitted via: CDex 1.51
#
DISCID=8b07800a
DTITLE=Ray Price - Country Music Hall of Fame
DYEAR=1996
DGENRE=Country
TTITLE0=My Shoes Keep Walking Back to You
TTITLE1=City Lights
TTITLE2=For the Good Times
TTITLE3=I Won't Mention it Again
TTITLE4=I've Got a New Heartache
TTITLE5=She's Got to be a Saint
TTITLE6=You're the Best Thing That's Ever Happened To Me
TTITLE7=Make the World Go Away
TTITLE8=Burning Memories
TTITLE9=The Other Woman
EXTD=YEAR: 1996
EXTT0=
EXTT1=
EXTT2=
EXTT3=
EXTT4=
EXTT5=
EXTT6=
EXTT7=
EXTT8=
EXTT9=
PLAYORDER=
